<svg preserveAspectRatio="none" width="100%" height="100%" overflow="visible" style="display: block;" viewBox="0 0 560 560" fill="none" xmlns="http://www.w3.org/2000/svg">
<path id="Vector" d="M321.482 414.815C321.482 423.019 319.049 431.039 314.491 437.861C309.933 444.682 303.454 449.999 295.874 453.139C288.295 456.278 279.954 457.1 271.907 455.499C263.861 453.899 256.47 449.948 250.668 444.147C244.867 438.345 240.916 430.954 239.316 422.907C237.715 414.861 238.537 406.52 241.676 398.94C244.816 391.361 250.133 384.882 256.954 380.324C263.776 375.766 271.796 373.333 280 373.333C291.002 373.333 301.553 377.704 309.332 385.483C317.111 393.262 321.482 403.813 321.482 414.815ZM560 280C560 335.379 543.578 389.514 512.812 435.56C482.045 481.605 438.315 517.494 387.151 538.686C335.988 559.879 279.689 565.424 225.375 554.62C171.06 543.816 121.169 517.148 82.0102 477.99C42.8515 438.831 16.1841 388.94 5.38025 334.625C-5.42361 280.311 0.12132 224.012 21.3139 172.849C42.5064 121.685 78.3947 77.9553 124.44 47.1885C170.486 16.4217 224.621 0 280 0C354.235 0.0823465 425.407 29.6087 477.899 82.101C530.391 134.593 559.918 205.765 560 280ZM497.778 280C497.778 236.928 485.005 194.822 461.076 159.009C437.146 123.196 403.134 95.2826 363.34 78.7996C323.546 62.3165 279.758 58.0037 237.514 66.4067C195.269 74.8097 156.465 95.5511 126.008 126.008C95.5512 156.465 74.8099 195.269 66.4069 237.514C58.0039 279.758 62.3166 323.546 78.7997 363.34C95.2828 403.134 123.196 437.146 159.009 461.075C194.823 485.005 236.928 497.778 280 497.778C337.739 497.716 393.096 474.752 433.924 433.924C474.752 393.096 497.716 337.739 497.778 280ZM280 114.074C217.104 114.074 165.926 160.585 165.926 217.778V228.148C165.926 236.399 169.204 244.313 175.038 250.147C180.873 255.981 188.786 259.259 197.037 259.259C205.288 259.259 213.202 255.981 219.036 250.147C224.87 244.313 228.148 236.399 228.148 228.148V217.778C228.148 194.911 251.482 176.296 280 176.296C308.519 176.296 331.852 194.911 331.852 217.778C331.852 240.644 308.519 259.259 280 259.259C271.749 259.259 263.836 262.537 258.001 268.371C252.167 274.206 248.889 282.119 248.889 290.37V311.111C248.87 318.797 251.698 326.218 256.826 331.944C261.955 337.669 269.021 341.293 276.663 342.118C284.305 342.942 291.982 340.908 298.213 336.409C304.445 331.909 308.79 325.261 310.411 317.748C358.582 305.615 394.074 265.404 394.074 217.778C394.074 160.585 342.896 114.074 280 114.074Z" fill="var(--fill-0, #FAF6EF)"/>
</svg>
