<svg preserveAspectRatio="none" width="100%" height="100%" overflow="visible" style="display: block;" viewBox="0 0 36 36" fill="none" xmlns="http://www.w3.org/2000/svg">
<g id="Icons/Navigation/Chevron_right">
<path d="M0 18C0 8.05887 8.05887 0 18 0V0C27.9411 0 36 8.05887 36 18V18C36 27.9411 27.9411 36 18 36V36C8.05887 36 0 27.9411 0 18V18Z" fill="var(--fill-0, #FBB900)"/>
<mask id="mask0_0_110" style="mask-type:alpha" maskUnits="userSpaceOnUse" x="6" y="6" width="24" height="24">
<rect id="Bounding box" x="6" y="6" width="24" height="24" fill="var(--fill-0, #007D57)"/>
</mask>
<g mask="url(#mask0_0_110)">
<path id="Icon" d="M19.5969 17.9969L15.6969 14.0969C15.5135 13.9135 15.4219 13.6802 15.4219 13.3969C15.4219 13.1135 15.5135 12.8802 15.6969 12.6969C15.8802 12.5135 16.1135 12.4219 16.3969 12.4219C16.6802 12.4219 16.9135 12.5135 17.0969 12.6969L21.6969 17.2969C21.7969 17.3969 21.8677 17.5052 21.9094 17.6219C21.951 17.7385 21.9719 17.8635 21.9719 17.9969C21.9719 18.1302 21.951 18.2552 21.9094 18.3719C21.8677 18.4885 21.7969 18.5969 21.6969 18.6969L17.0969 23.2969C16.9135 23.4802 16.6802 23.5719 16.3969 23.5719C16.1135 23.5719 15.8802 23.4802 15.6969 23.2969C15.5135 23.1135 15.4219 22.8802 15.4219 22.5969C15.4219 22.3135 15.5135 22.0802 15.6969 21.8969L19.5969 17.9969Z" fill="var(--fill-0, #012549)"/>
</g>
</g>
</svg>
