<svg preserveAspectRatio="none" width="100%" height="100%" overflow="visible" style="display: block;" viewBox="0 0 24 24" fill="none" xmlns="http://www.w3.org/2000/svg">
<g id="Jeep">
<path id="Vector" d="M23.2516 9.70031C23.2351 9.50712 23.1458 9.32742 23.0019 9.19745C22.858 9.06748 22.6702 8.99692 22.4763 9H21.7516C21.7516 8.94705 21.7459 8.89426 21.7348 8.8425L20.7373 4.18594C20.6641 3.85084 20.4789 3.55071 20.2121 3.3351C19.9454 3.11948 19.6131 3.00128 19.2701 3H4.73321C4.39022 3.00128 4.05792 3.11948 3.79118 3.3351C3.52443 3.55071 3.33918 3.85084 3.26602 4.18594L2.26852 8.8425C2.25735 8.89426 2.2517 8.94705 2.25165 9H1.52696C1.33309 8.99692 1.14526 9.06748 1.00137 9.19745C0.857478 9.32742 0.768236 9.50712 0.751648 9.70031C0.744836 9.8029 0.759191 9.9058 0.79382 10.0026C0.828449 10.0994 0.882612 10.1881 0.952947 10.2631C1.02328 10.3381 1.10828 10.3978 1.20268 10.4386C1.29707 10.4793 1.39883 10.5002 1.50165 10.5H2.25165V18.75C2.25165 19.1478 2.40968 19.5294 2.69099 19.8107C2.97229 20.092 3.35382 20.25 3.75165 20.25H6.00165C6.39947 20.25 6.781 20.092 7.06231 19.8107C7.34361 19.5294 7.50165 19.1478 7.50165 18.75V17.25H9.37665C9.4761 17.25 9.57149 17.2105 9.64181 17.1402C9.71214 17.0698 9.75165 16.9745 9.75165 16.875V12.0253C9.74904 11.8318 9.81982 11.6444 9.94974 11.5009C10.0797 11.3574 10.2591 11.2684 10.452 11.2519C10.5546 11.2451 10.6574 11.2594 10.7543 11.294C10.8511 11.3287 10.9397 11.3828 11.0147 11.4532C11.0897 11.5235 11.1494 11.6085 11.1902 11.7029C11.231 11.7973 11.2519 11.8991 11.2516 12.0019V16.8769C11.2516 16.9763 11.2912 17.0717 11.3615 17.142C11.4318 17.2124 11.5272 17.2519 11.6266 17.2519H12.3766C12.4761 17.2519 12.5715 17.2124 12.6418 17.142C12.7121 17.0717 12.7516 16.9763 12.7516 16.8769V12.0253C12.749 11.8318 12.8198 11.6444 12.9497 11.5009C13.0797 11.3574 13.2591 11.2684 13.452 11.2519C13.5546 11.2451 13.6574 11.2594 13.7543 11.294C13.8511 11.3287 13.9397 11.3828 14.0147 11.4532C14.0897 11.5235 14.1494 11.6085 14.1902 11.7029C14.231 11.7973 14.2519 11.8991 14.2516 12.0019V16.8769C14.2516 16.9763 14.2912 17.0717 14.3615 17.142C14.4318 17.2124 14.5272 17.2519 14.6266 17.2519H16.5016V18.7519C16.5016 19.1497 16.6597 19.5312 16.941 19.8125C17.2223 20.0938 17.6038 20.2519 18.0016 20.2519H20.2516C20.6495 20.2519 21.031 20.0938 21.3123 19.8125C21.5936 19.5312 21.7516 19.1497 21.7516 18.7519V10.5H22.5016C22.6045 10.5002 22.7062 10.4793 22.8006 10.4386C22.895 10.3978 22.98 10.3381 23.0503 10.2631C23.1207 10.1881 23.1748 10.0994 23.2095 10.0026C23.2441 9.9058 23.2585 9.8029 23.2516 9.70031ZM6.37665 13.5C6.15414 13.5 5.93664 13.434 5.75163 13.3104C5.56663 13.1868 5.42243 13.0111 5.33728 12.8055C5.25213 12.6 5.22986 12.3738 5.27326 12.1555C5.31667 11.9373 5.42382 11.7368 5.58115 11.5795C5.73849 11.4222 5.93894 11.315 6.15717 11.2716C6.3754 11.2282 6.6016 11.2505 6.80717 11.3356C7.01273 11.4208 7.18843 11.565 7.31205 11.75C7.43567 11.935 7.50165 12.1525 7.50165 12.375C7.50165 12.6734 7.38312 12.9595 7.17214 13.1705C6.96116 13.3815 6.67502 13.5 6.37665 13.5ZM17.6266 13.5C17.4041 13.5 17.1866 13.434 17.0016 13.3104C16.8166 13.1868 16.6724 13.0111 16.5873 12.8055C16.5021 12.6 16.4799 12.3738 16.5233 12.1555C16.5667 11.9373 16.6738 11.7368 16.8312 11.5795C16.9885 11.4222 17.1889 11.315 17.4072 11.2716C17.6254 11.2282 17.8516 11.2505 18.0572 11.3356C18.2627 11.4208 18.4384 11.565 18.5621 11.75C18.6857 11.935 18.7516 12.1525 18.7516 12.375C18.7516 12.6734 18.6331 12.9595 18.4221 13.1705C18.2112 13.3815 17.925 13.5 17.6266 13.5ZM3.76852 9L4.73321 4.5H19.2701L20.2348 9H3.76852Z" fill="var(--fill-0, #FBB900)"/>
</g>
</svg>
