<svg preserveAspectRatio="none" width="100%" height="100%" overflow="visible" style="display: block;" viewBox="0 0 24 24" fill="none" xmlns="http://www.w3.org/2000/svg">
<g id="CaretRight">
<path id="Vector" d="M17.2988 12.7988L9.79883 20.2988C9.58748 20.5102 9.30084 20.6289 9.00195 20.6289C8.70307 20.6289 8.41642 20.5102 8.20508 20.2988C7.99373 20.0875 7.875 19.8008 7.875 19.502C7.875 19.2031 7.99373 18.9164 8.20508 18.7051L14.9091 12.0029L8.20695 5.29883C8.1023 5.19418 8.01929 5.06995 7.96266 4.93322C7.90602 4.79649 7.87687 4.64994 7.87687 4.50195C7.87687 4.35396 7.90602 4.20741 7.96266 4.07069C8.01929 3.93396 8.1023 3.80972 8.20695 3.70508C8.3116 3.60043 8.43583 3.51742 8.57256 3.46078C8.70929 3.40415 8.85583 3.375 9.00383 3.375C9.15182 3.375 9.29836 3.40415 9.43509 3.46078C9.57182 3.51742 9.69605 3.60043 9.8007 3.70508L17.3007 11.2051C17.4055 11.3097 17.4885 11.434 17.5451 11.5708C17.6018 11.7076 17.6308 11.8543 17.6307 12.0023C17.6305 12.1504 17.6011 12.297 17.5441 12.4337C17.4872 12.5703 17.4038 12.6944 17.2988 12.7988Z" fill="var(--fill-0, black)"/>
</g>
</svg>
