<svg preserveAspectRatio="none" width="100%" height="100%" overflow="visible" style="display: block;" viewBox="0 0 24 24" fill="none" xmlns="http://www.w3.org/2000/svg">
<g id="Phone">
<path id="Vector" d="M3.49999 7.49921C3.49791 6.33954 3.91785 5.21851 4.68163 4.34589C5.4443 3.47472 6.49787 2.90949 7.6455 2.75703L7.64648 2.758C7.86043 2.73188 8.07755 2.77501 8.26464 2.88203C8.45185 2.98926 8.59975 3.15477 8.68554 3.35273L8.68847 3.35859L10.624 7.67988V7.68867L10.666 7.78437C10.7316 7.93581 10.758 8.10136 10.7441 8.26581C10.7304 8.42862 10.6772 8.58549 10.5889 8.72285C10.5835 8.73083 10.576 8.74044 10.5644 8.75507L8.61816 11.0637L8.40722 11.3137L8.55175 11.6066C9.30366 13.1345 10.8778 14.6935 12.4219 15.4455L12.7148 15.5891L12.9639 15.3771L15.2441 13.4377C15.2518 13.4313 15.2593 13.4246 15.2676 13.4191H15.2685L15.2695 13.4182C15.4078 13.3259 15.5678 13.2694 15.7334 13.2541C15.8573 13.2427 15.9817 13.2551 16.1006 13.2893L16.2178 13.3303L16.2226 13.3332L20.6387 15.3117L20.6455 15.3146C20.8438 15.4001 21.0096 15.5473 21.1172 15.7346C21.2248 15.9218 21.2682 16.1393 21.2422 16.3537C21.0899 17.5015 20.5255 18.5548 19.6543 19.3176C18.7816 20.0815 17.6608 20.5023 16.501 20.5002H16.5C9.33245 20.5002 3.50009 14.6677 3.49999 7.50019V7.49921Z" fill="var(--fill-0, black)" stroke="var(--stroke-0, #FBB900)"/>
</g>
</svg>
